<svg xmlns="http://www.w3.org/2000/svg" width="27" height="27" viewBox="0 0 27 27" fill="none">
<path d="M23.5571 13.7401C23.5451 11.6089 24.4734 10.0027 26.3481 8.81841C25.2996 7.25597 23.7133 6.39663 21.6223 6.23101C19.6425 6.06851 17.4764 7.43096 16.6833 7.43096C15.8451 7.43096 13.9283 6.28726 12.4202 6.28726C9.30773 6.33725 6 8.8684 6 14.0182C6 15.54 6.26738 17.1118 6.80215 18.7305C7.51717 20.8617 10.0948 26.0834 12.7837 25.999C14.1897 25.9646 15.1841 24.9615 17.0137 24.9615C18.7893 24.9615 19.7086 25.999 21.2768 25.999C23.9897 25.9584 26.321 21.2117 27 19.0743C23.3618 17.29 23.5571 13.8495 23.5571 13.7401ZM23.2386 22.0835C22.809 22.7054 22.3764 23.196 21.9798 23.5116C21.6644 23.7616 21.421 23.8678 21.2588 23.8741C20.9884 23.8709 20.727 23.8022 20.2163 23.5991C20.1803 23.5835 20.1412 23.5678 20.0901 23.5491L19.9579 23.496C19.4352 23.2866 19.1227 23.1741 18.7232 23.0647C18.1644 22.9147 17.6086 22.8335 17.0137 22.8335C16.4069 22.8335 15.8361 22.9116 15.2682 23.0585C14.8506 23.1679 14.4991 23.2897 13.9854 23.4897C13.9644 23.4991 13.7421 23.5866 13.679 23.6116C13.5738 23.6522 13.4927 23.6835 13.4176 23.7116C13.1052 23.8241 12.9069 23.8709 12.7296 23.8741C12.7086 23.8741 12.6906 23.8709 12.6755 23.8678C12.6425 23.8616 12.6004 23.8491 12.5524 23.8272C12.4172 23.771 12.2549 23.6678 12.0717 23.521C11.6511 23.1803 11.1884 22.646 10.7167 21.9616C9.89056 20.7554 9.10944 19.1555 8.73391 18.0337C8.27124 16.6337 8.04292 15.2932 8.04292 14.0151C8.04292 12.1339 8.57768 10.7027 9.497 9.73087C10.2871 8.89965 11.3506 8.43405 12.4352 8.40905C12.6124 8.41217 12.8708 8.45592 13.1983 8.54967C13.4567 8.62154 13.7391 8.71841 14.1206 8.85903C14.2348 8.90278 14.6283 9.04965 14.6764 9.0684C14.9077 9.15589 15.082 9.21839 15.2532 9.27464C15.8 9.45588 16.2236 9.55588 16.6833 9.55588C17.1489 9.55588 17.5485 9.45276 18.1163 9.24964C18.3296 9.17464 19.1047 8.87465 19.2429 8.82466C20.012 8.54029 20.5798 8.38717 21.0695 8.34968C21.2137 8.33718 21.3429 8.33718 21.4661 8.34655C22.1481 8.4028 22.7309 8.54342 23.2266 8.77778C22.097 10.134 21.5142 11.7933 21.5172 13.7276C21.5082 14.1869 21.5442 14.7182 21.6704 15.3463C21.8627 16.2994 22.2292 17.2431 22.809 18.1274C23.2506 18.7993 23.7974 19.4055 24.4524 19.9336C24.1069 20.6742 23.6833 21.4398 23.2386 22.0835ZM20.3996 4.20921C21.9227 2.32803 21.7845 0.615601 21.7395 0C20.3936 0.0812468 18.8373 0.953088 17.9511 2.02492C16.9747 3.17488 16.4009 4.5967 16.524 6.19976C17.9781 6.31538 19.306 5.53728 20.3996 4.20921Z" fill="black"/>
</svg>